# xmcd CD database file generated by OrangeCD 6.1
#
# Track frame offsets:
#	150
#	14649
#	30251
#	43466
#	60501
#	77012
#	91417
#	106441
#	119491
#	132991
#	148367
#	162781
#	175398
#	190117
#	206997
#	218932
#	232971
#	245515
#	260370
#	281010
#
# Disc length: 3990 seconds
#
# Revision: 5
# Processed by: cddbd v1.5.2PL0 Copyright (c) Steve Scherf et al.
# Submitted via: OrangeCD 6.1
#
DISCID=2d0f9414
DTITLE=Dr. Hook - Love Songs
DYEAR=1998
DGENRE=
TTITLE0=A Little Bit More
TTITLE1=Sexy Eyes
TTITLE2=When You're In Love With A Beautiful Woman
TTITLE3=Sylvia's Mother
TTITLE4=More Like The Movies
TTITLE5=If Not You
TTITLE6=I Don't Want To Be Alone Tonight
TTITLE7=Sharing The Night Together
TTITLE8=Better Love Next Time
TTITLE9=Knowing She's There
TTITLE10=Years From Now
TTITLE11=Feels Good
TTITLE12=I Never Got To Know Her
TTITLE13=That Plane
TTITLE14=Sweetest Of All
TTITLE15=A Couple More Years
TTITLE16=Only Sixteen
TTITLE17=Love You Now
TTITLE18=I Think I'm In Love
TTITLE19=Happy Ever After Love
EXTD=
EXTT0=
EXTT1=
EXTT2=
EXTT3=
EXTT4=
EXTT5=
EXTT6=
EXTT7=
EXTT8=
EXTT9=
EXTT10=
EXTT11=
EXTT12=
EXTT13=
EXTT14=
EXTT15=
EXTT16=
EXTT17=
EXTT18=
EXTT19=
PLAYORDER=
